<svg width="436" height="50" viewBox="0 0 436 50" fill="none" xmlns="http://www.w3.org/2000/svg">
<rect width="73" height="50" rx="8" fill="#0084FF" fill-opacity="0.1"/>
<path d="M16.3271 32V30.4707L20.4932 26.2168C22.2158 24.4766 22.6992 23.835 22.6992 22.8594V22.833C22.6992 21.6641 21.8994 20.8203 20.5811 20.8203C19.2363 20.8203 18.3311 21.708 18.3311 23.0176L18.3223 23.0527L16.2129 23.0439L16.2041 23.0176C16.2041 20.6533 18.0498 19.001 20.6953 19.001C23.165 19.001 24.9404 20.5039 24.9404 22.6396V22.666C24.9404 24.1074 24.2461 25.25 21.9346 27.4736L19.3945 29.9346V30.1191H25.1338V32H16.3271ZM31.8469 32.3164C28.8322 32.3164 27.0217 29.7588 27.0217 25.6631V25.6455C27.0217 21.5498 28.8322 19.001 31.8469 19.001C34.8615 19.001 36.6896 21.5498 36.6896 25.6455V25.6631C36.6896 29.7588 34.8615 32.3164 31.8469 32.3164ZM31.8469 30.4795C33.4641 30.4795 34.4045 28.6689 34.4045 25.6631V25.6455C34.4045 22.6396 33.4641 20.8467 31.8469 20.8467C30.2297 20.8467 29.3068 22.6396 29.3068 25.6455V25.6631C29.3068 28.6689 30.2297 30.4795 31.8469 30.4795ZM38.7182 32V30.4707L42.8842 26.2168C44.6068 24.4766 45.0902 23.835 45.0902 22.8594V22.833C45.0902 21.6641 44.2904 20.8203 42.9721 20.8203C41.6273 20.8203 40.7221 21.708 40.7221 23.0176L40.7133 23.0527L38.6039 23.0439L38.5951 23.0176C38.5951 20.6533 40.4408 19.001 43.0863 19.001C45.5561 19.001 47.3314 20.5039 47.3314 22.6396V22.666C47.3314 24.1074 46.6371 25.25 44.3256 27.4736L41.7855 29.9346V30.1191H47.5248V32H38.7182ZM52.691 32V21.5498H52.5416L49.3863 23.7822V21.6465L52.6998 19.3174H54.9586V32H52.691Z" fill="#0084FF"/>
<rect x="83" width="75" height="50" rx="8" fill="#0084FF" fill-opacity="0.1"/>
<path d="M99.3271 32V30.4707L103.493 26.2168C105.216 24.4766 105.699 23.835 105.699 22.8594V22.833C105.699 21.6641 104.899 20.8203 103.581 20.8203C102.236 20.8203 101.331 21.708 101.331 23.0176L101.322 23.0527L99.2129 23.0439L99.2041 23.0176C99.2041 20.6533 101.05 19.001 103.695 19.001C106.165 19.001 107.94 20.5039 107.94 22.6396V22.666C107.94 24.1074 107.246 25.25 104.935 27.4736L102.395 29.9346V30.1191H108.134V32H99.3271ZM114.847 32.3164C111.832 32.3164 110.022 29.7588 110.022 25.6631V25.6455C110.022 21.5498 111.832 19.001 114.847 19.001C117.862 19.001 119.69 21.5498 119.69 25.6455V25.6631C119.69 29.7588 117.862 32.3164 114.847 32.3164ZM114.847 30.4795C116.464 30.4795 117.404 28.6689 117.404 25.6631V25.6455C117.404 22.6396 116.464 20.8467 114.847 20.8467C113.23 20.8467 112.307 22.6396 112.307 25.6455V25.6631C112.307 28.6689 113.23 30.4795 114.847 30.4795ZM121.718 32V30.4707L125.884 26.2168C127.607 24.4766 128.09 23.835 128.09 22.8594V22.833C128.09 21.6641 127.29 20.8203 125.972 20.8203C124.627 20.8203 123.722 21.708 123.722 23.0176L123.713 23.0527L121.604 23.0439L121.595 23.0176C121.595 20.6533 123.441 19.001 126.086 19.001C128.556 19.001 130.331 20.5039 130.331 22.6396V22.666C130.331 24.1074 129.637 25.25 127.326 27.4736L124.786 29.9346V30.1191H130.525V32H121.718ZM132.588 32V30.4707L136.754 26.2168C138.477 24.4766 138.961 23.835 138.961 22.8594V22.833C138.961 21.6641 138.161 20.8203 136.842 20.8203C135.498 20.8203 134.592 21.708 134.592 23.0176L134.584 23.0527L132.474 23.0439L132.465 23.0176C132.465 20.6533 134.311 19.001 136.957 19.001C139.426 19.001 141.202 20.5039 141.202 22.6396V22.666C141.202 24.1074 140.507 25.25 138.196 27.4736L135.656 29.9346V30.1191H141.395V32H132.588Z" fill="#0084FF"/>
<rect x="168" width="182" height="50" rx="8" fill="#0084FF"/>
<path d="M187.702 32V21.5059H183.896V19.3174H194.162V21.5059H190.356V32H187.702ZM199.302 32.2021C196.358 32.2021 194.573 30.2773 194.573 27.1748V27.166C194.573 24.0898 196.375 22.1123 199.196 22.1123C202.018 22.1123 203.776 24.0459 203.776 26.9727V27.7725H197.113C197.14 29.3633 197.992 30.2861 199.355 30.2861C200.48 30.2861 201.104 29.6885 201.279 29.3193L201.306 29.2666H203.696L203.679 29.3545C203.38 30.5674 202.132 32.2021 199.302 32.2021ZM199.24 24.0371C198.124 24.0371 197.298 24.793 197.14 26.1641H201.315C201.156 24.7578 200.357 24.0371 199.24 24.0371ZM208.661 27.9482H208.168V32H205.602V22.3232H208.168V26.1201H208.625L211.508 22.3232H214.417L210.744 26.7529L214.611 32H211.561L208.661 27.9482ZM216.833 35.4102C216.534 35.4102 216.209 35.4014 215.91 35.3838V33.4502C216.086 33.4678 216.34 33.4766 216.578 33.4766C217.492 33.4766 218.019 33.125 218.204 32.3691L218.292 32L214.89 22.3232H217.712L219.742 29.6533H219.918L221.948 22.3232H224.655L221.359 31.9912C220.498 34.5488 219.223 35.4102 216.833 35.4102ZM226.165 32V22.3232H228.731V30.0312H231.491V22.3232H234.057V30.0312H236.826V22.3232H239.392V30.0664H240.904V34.5049H238.549V32H226.165ZM242.238 32V22.3232H244.761V28.3789H244.945L248.637 22.3232H251.159V32H248.637V25.874H248.443L244.761 32H242.238ZM257.925 21.0137C255.912 21.0137 254.576 19.748 254.576 17.9551H256.492C256.519 18.8867 257.064 19.5986 257.925 19.5986C258.786 19.5986 259.331 18.8867 259.349 17.9551H261.265C261.265 19.748 259.938 21.0137 257.925 21.0137ZM253.46 32V22.3232H255.983V28.3789H256.167L259.859 22.3232H262.381V32H259.859V25.874H259.665L255.983 32H253.46ZM268.873 32V22.3232H277.6V32H275.034V24.2568H271.439V32H268.873ZM284.137 32.2021C281.193 32.2021 279.409 30.2773 279.409 27.1748V27.166C279.409 24.0898 281.211 22.1123 284.032 22.1123C286.853 22.1123 288.611 24.0459 288.611 26.9727V27.7725H281.949C281.975 29.3633 282.828 30.2861 284.19 30.2861C285.315 30.2861 285.939 29.6885 286.115 29.3193L286.141 29.2666H288.532L288.514 29.3545C288.216 30.5674 286.968 32.2021 284.137 32.2021ZM284.076 24.0371C282.96 24.0371 282.134 24.793 281.975 26.1641H286.15C285.992 24.7578 285.192 24.0371 284.076 24.0371ZM290.438 35.208V22.3232H293.004V23.8174H293.162C293.663 22.7803 294.691 22.165 296.062 22.165C298.479 22.165 299.991 24.0635 299.991 27.1484V27.166C299.991 30.2773 298.515 32.1494 296.062 32.1494C294.735 32.1494 293.654 31.5078 293.162 30.4531H293.004V35.208H290.438ZM295.184 30.0225C296.537 30.0225 297.381 28.9414 297.381 27.166V27.1484C297.381 25.373 296.546 24.292 295.184 24.292C293.83 24.292 292.978 25.373 292.978 27.1484V27.166C292.978 28.9414 293.839 30.0225 295.184 30.0225ZM301.818 32V22.3232H304.34V28.3789H304.525L308.216 22.3232H310.738V32H308.216V25.874H308.023L304.34 32H301.818ZM317.337 32.2021C314.358 32.2021 312.565 30.3125 312.565 27.166V27.1484C312.565 24.0283 314.384 22.1123 317.337 22.1123C320.29 22.1123 322.11 24.0195 322.11 27.1484V27.166C322.11 30.3213 320.317 32.2021 317.337 32.2021ZM317.337 30.1895C318.7 30.1895 319.482 29.0732 319.482 27.166V27.1484C319.482 25.2588 318.691 24.125 317.337 24.125C315.975 24.125 315.193 25.2588 315.193 27.1484V27.166C315.193 29.0732 315.966 30.1895 317.337 30.1895ZM325.079 34.5049H322.741V30.0312H323.488C324.2 29.627 324.472 28.5283 324.56 27.2275L324.877 22.3232H332.549V30.0312H334.008V34.5049H331.671V32H325.079V34.5049ZM329.983 30.0312V24.292H327.047L326.828 27.3857C326.757 28.3877 326.546 29.2578 326.142 29.873V30.0312H329.983Z" fill="white"/>
<rect x="360" width="76" height="50" rx="8" fill="#0084FF" fill-opacity="0.1"/>
<path d="M376.327 32V30.4707L380.493 26.2168C382.216 24.4766 382.699 23.835 382.699 22.8594V22.833C382.699 21.6641 381.899 20.8203 380.581 20.8203C379.236 20.8203 378.331 21.708 378.331 23.0176L378.322 23.0527L376.213 23.0439L376.204 23.0176C376.204 20.6533 378.05 19.001 380.695 19.001C383.165 19.001 384.94 20.5039 384.94 22.6396V22.666C384.94 24.1074 384.246 25.25 381.935 27.4736L379.395 29.9346V30.1191H385.134V32H376.327ZM391.847 32.3164C388.832 32.3164 387.022 29.7588 387.022 25.6631V25.6455C387.022 21.5498 388.832 19.001 391.847 19.001C394.862 19.001 396.69 21.5498 396.69 25.6455V25.6631C396.69 29.7588 394.862 32.3164 391.847 32.3164ZM391.847 30.4795C393.464 30.4795 394.404 28.6689 394.404 25.6631V25.6455C394.404 22.6396 393.464 20.8467 391.847 20.8467C390.23 20.8467 389.307 22.6396 389.307 25.6455V25.6631C389.307 28.6689 390.23 30.4795 391.847 30.4795ZM398.718 32V30.4707L402.884 26.2168C404.607 24.4766 405.09 23.835 405.09 22.8594V22.833C405.09 21.6641 404.29 20.8203 402.972 20.8203C401.627 20.8203 400.722 21.708 400.722 23.0176L400.713 23.0527L398.604 23.0439L398.595 23.0176C398.595 20.6533 400.441 19.001 403.086 19.001C405.556 19.001 407.331 20.5039 407.331 22.6396V22.666C407.331 24.1074 406.637 25.25 404.326 27.4736L401.786 29.9346V30.1191H407.525V32H398.718ZM414.176 32.2549C411.399 32.2549 409.58 30.7432 409.413 28.5723L409.404 28.4668H411.566L411.575 28.5635C411.698 29.6357 412.691 30.4004 414.176 30.4004C415.644 30.4004 416.62 29.583 416.62 28.4053V28.3877C416.62 27.0518 415.635 26.3135 414.009 26.3135H412.515V24.626H413.965C415.363 24.626 416.295 23.835 416.295 22.7275V22.71C416.295 21.5498 415.512 20.8643 414.159 20.8643C412.823 20.8643 411.9 21.5762 411.786 22.71L411.777 22.7979H409.668L409.676 22.7012C409.87 20.5039 411.601 19.0625 414.159 19.0625C416.769 19.0625 418.465 20.4248 418.465 22.4111V22.4287C418.465 24.002 417.332 25.0479 415.811 25.3643V25.4082C417.674 25.584 418.914 26.6914 418.914 28.4492V28.4668C418.914 30.6992 416.989 32.2549 414.176 32.2549Z" fill="#0084FF"/>
</svg>
