<svg width="20" height="20" viewBox="0 0 17 24" fill="none" xmlns="http://www.w3.org/2000/svg">
<path fill-rule="evenodd" clip-rule="evenodd" d="M4.5 19H12.5C14.1569 19 15.5 17.6569 15.5 16V11.1H11.5C10.3402 11.1 9.4 10.1598 9.4 9V5H4.5C2.84315 5 1.5 6.34315 1.5 8V16C1.5 17.6569 2.84315 19 4.5 19ZM14.9142 8.91421C15.1866 9.18661 15.3723 9.5295 15.4536 9.9H11.5C11.0029 9.9 10.6 9.49706 10.6 9V5.04642C10.9705 5.12768 11.3134 5.31339 11.5858 5.58579L14.9142 8.91421ZM5.25 12C4.83579 12 4.5 12.3358 4.5 12.75C4.5 13.1642 4.83579 13.5 5.25 13.5H8.75C9.16421 13.5 9.5 13.1642 9.5 12.75C9.5 12.3358 9.16421 12 8.75 12H5.25ZM5.25 14.5C4.83579 14.5 4.5 14.8358 4.5 15.25C4.5 15.6642 4.83579 16 5.25 16H11.75C12.1642 16 12.5 15.6642 12.5 15.25C12.5 14.8358 12.1642 14.5 11.75 14.5H5.25Z" fill="#18212B"/>
</svg>
