<svg width="24" height="24" viewBox="0 0 24 24" fill="none" xmlns="http://www.w3.org/2000/svg">
<path d="M13.9417 18.6667H13.7667C13.0429 18.5948 12.4493 18.0619 12.3001 17.35L10.0667 6.99999L7.76675 12.3333C7.63379 12.638 7.33249 12.8345 7.00008 12.8333H4.50008C4.03984 12.8333 3.66675 12.4602 3.66675 12C3.66675 11.5398 4.03984 11.1667 4.50008 11.1667H6.45008L8.54175 6.34166C8.83065 5.67732 9.5156 5.27569 10.2364 5.34796C10.9572 5.42023 11.5488 5.94986 11.7001 6.65832L13.9334 17L16.2334 11.6833C16.3613 11.3721 16.6637 11.1683 17.0001 11.1667H19.5001C19.9603 11.1667 20.3334 11.5398 20.3334 12C20.3334 12.4602 19.9603 12.8333 19.5001 12.8333H17.5501L15.4584 17.6583C15.1974 18.2654 14.6025 18.6609 13.9417 18.6667Z" fill="#6F849E"/>
</svg>
